{"title":"Seeking.Justice.2011.DVDRip.XviD.AC3-SiC","uid":6979896,"size":958384692,"categoryP":"video","categoryS":"movies","magnet":"?xt=urn:btih:7d83c02eff8628cf0b5d47003dbaa83afafd3d3a&amp;dn=Seeking.Justice.2011.DVDRip.XviD.AC3-SiC&amp;tr=udp%3A%2F%2Ftracker.openbittorrent.com%3A80&amp;tr=udp%3A%2F%2Fopen.demonii.com%3A1337&amp;tr=udp%3A%2F%2Ftracker.coppersurfer.tk%3A6969&amp;tr=udp%3A%2F%2Fexodus.desync.com%3A6969","seeders":0,"leechers":1,"uploader":"TvTeam","files":5,"time":1327364598,"description":". \n &lt;a href=&quot;\nhttp://www.torrenting.com&quot; rel=&quot;nofollow&quot; target=&quot;_NEW&quot;&gt;\nhttp://www.torrenting.com&lt;/a&gt;          :     Once &amp; For all ;)\n\n\n               www . Torrenting . Com \n\n(((((((((((((= Enjoy No RAR releases =))))))))))))))))))))\n\n\n...................................NFO:....................................\n\n.Seeking.Justice.2011.DVDRip.XviD.AC3-SiC\n\nPoster:\n[IMG]http://i.imgur.com/9uIqh.jpg[/IMG]\n\nIMDB Link: &lt;a href=&quot;\nhttp://www.imdb.com/title/tt1214962/&quot; rel=&quot;nofollow&quot; target=&quot;_NEW&quot;&gt;\nhttp://www.imdb.com/title/tt1214962/&lt;/a&gt;\n\nDescription:\nAfter his wife is assaulted, a husband enlists the services of a vigilante group to help him settle the score.\n\nGeneral:\nComplete name                    : Seeking.Justice.2011.DVDRip.XviD.AC3-SiC.avi\nFormat                           : AVI\nFormat/Info                      : Audio Video Interleave\nFile size                        : 897 MiB\nDuration                         : 1h 44mn\nOverall bit rate                 : 1 196 Kbps\nWriting application              : VirtualDubMod 1.5.10.2 (build 2540/release)\nWriting library                  : VirtualDubMod build 2540/release\n\nVideo\nID                               : 0\nFormat                           : MPEG-4 Visual\nFormat profile                   : Advanced Simple@L5\nFormat settings, BVOP            : 2\nFormat settings, QPel            : No\nFormat settings, GMC             : No warppoints\nFormat settings, Matrix          : Default (H.263)\nMuxing mode                      : Packed bitstream\nCodec ID                         : XVID\nCodec ID/Hint                    : XviD\nDuration                         : 1h 44mn\nBit rate                         : 736 Kbps\nWidth                            : 720 pixels\nHeight                           : 384 pixels\nDisplay aspect ratio             : 1.875\nFrame rate                       : 29.970 fps\nColor space                      : YUV\nChroma subsampling               : 4:2:0\nBit depth                        : 8 bits\nScan type                        : Progressive\nCompression mode                 : Lossy\nBits/(Pixel*Frame)               : 0.089\nStream size                      : 552 MiB (62%)\nWriting library                  : XviD 64\n\nAudio\nID                               : 1\nFormat                           : AC-3\nFormat/Info                      : Audio Coding 3\nMode extension                   : CM (complete main)\nCodec ID                         : 2000\nDuration                         : 1h 44mn\nBit rate mode                    : Constant\nBit rate                         : 448 Kbps\nChannel(s)                       : 6 channels\nChannel positions                : Front: L C R, Side: L R, LFE\nSampling rate                    : 48.0 KHz\nBit depth                        : 16 bits\nCompression mode                 : Lossy\nStream size                      : 336 MiB (37%)\nAlignment                        : Split accross interleaves\nInterleave, duration             : 33 ms (1.00 video frame)\nInterleave, preload duration     : 500 ms\n\nScreenshots:\n[IMG]http://i.imgur.com/83gqK.jpg[/IMG]\n[IMG]http://i.imgur.com/dNedi.jpg[/IMG]\n[IMG]http://i.imgur.com/pDiAA.jpg[/IMG]\n[IMG]http://i.imgur.com/1Tfup.jpg[/IMG]\n\nSource:  Seeking.Justice.2011.NTSC.DVDR\nEnjoy!\n\nRespects to T00NG0D, ELEKTRI4KA, PA, YeFsTe, MrRep and everyone in the struggle...","torrent":{"xt":"urn:btih:7d83c02eff8628cf0b5d47003dbaa83afafd3d3a","amp;dn":"Seeking.Justice.2011.DVDRip.XviD.AC3-SiC","amp;tr":["udp%3A%2F%2Ftracker.openbittorrent.com%3A80","udp%3A%2F%2Fopen.demonii.com%3A1337","udp%3A%2F%2Ftracker.coppersurfer.tk%3A6969","udp%3A%2F%2Fexodus.desync.com%3A6969"],"infoHash":"7d83c02eff8628cf0b5d47003dbaa83afafd3d3a","infoHashBuffer":{"type":"Buffer","data":[125,131,192,46,255,134,40,207,11,93,71,0,61,186,168,58,250,253,61,58]},"announce":[],"urlList":[]}}